PathFileType	4	(X/Y/Z)	Kaydara																																																																																																																									
DataRate	CameraRate	NumFrames	NumMarkers	Units	OrigDataRate	OrigDataStartFrame	OrigNumFrames																																																																																																																					
30	30	7	41	mm	30	171	341																																																																																																																					
Frame#	Time	NABA_LFHD			NABA_RFHD			NABA_LBHD			NABA_RBHD			NABA_LFTShould			NABA_RFTShould			NABA_LRRShould			NABA_RRRShould			NABA_T10			NABA_STRN			NABA_TRUN			NABA_LSHO			NABA_LUPA			NABA_LELB			NABA_LFRM			NABA_LWRA			NABA_LWRB			NABA_LFIN			NABA_RSHO			NABA_RUPA			NABA_RELB			NABA_RFRM			NABA_RWRA			NABA_RWRB			NABA_RFIN			NABA_LFWT			NABA_RFWT			NABA_LBWT			NABA_RBWT			NABA_LTHI			NABA_LKNE			NABA_LSHN			NABA_LANK			NABA_LHEE			NABA_LTOE			NABA_RTHI			NABA_RKNE			NABA_RSHN			NABA_RANK			NABA_RHEE			NABA_RTOE		
		X1	Y1	Z1	X2	Y2	Z2	X3	Y3	Z3	X4	Y4	Z4	X5	Y5	Z5	X6	Y6	Z6	X7	Y7	Z7	X8	Y8	Z8	X9	Y9	Z9	X10	Y10	Z10	X11	Y11	Z11	X12	Y12	Z12	X13	Y13	Z13	X14	Y14	Z14	X15	Y15	Z15	X16	Y16	Z16	X17	Y17	Z17	X18	Y18	Z18	X19	Y19	Z19	X20	Y20	Z20	X21	Y21	Z21	X22	Y22	Z22	X23	Y23	Z23	X24	Y24	Z24	X25	Y25	Z25	X26	Y26	Z26	X27	Y27	Z27	X28	Y28	Z28	X29	Y29	Z29	X30	Y30	Z30	X31	Y31	Z31	X32	Y32	Z32	X33	Y33	Z33	X34	Y34	Z34	X35	Y35	Z35	X36	Y36	Z36	X37	Y37	Z37	X38	Y38	Z38	X39	Y39	Z39	X40	Y40	Z40	X41	Y41	Z41
																																																																																																																												
171	5.677	224.37378	1457.81387	-454.37149	57.03368	1417.16568	-441.23234	225.65989	1536.53152	-553.14941	14.77465	1479.98215	-509.82582	197.05513	1302.05124	-628.89282	72.05812	1292.24564	-620.93456	192.07502	1378.5376	-730.187	48.5768	1368.34946	-713.13828	125.25547	1222.86964	-822.68127	142.45767	1239.09264	-583.84979	148.61258	1136.82343	-547.59911	287.50048	1338.11447	-672.77878	355.35301	1120.19951	-714.50562	363.89957	1017.2715	-694.91005	355.04471	934.15245	-712.83409	298.26401	794.217	-621.61171	370.16472	792.32719	-627.12616	352.38239	740.83435	-577.68353	-12.5703	1324.99649	-643.87192	-80.96274	1127.29851	-712.88292	-96.99128	995.86174	-662.72774	-96.03627	900.58449	-650.1104	-14.63132	783.22609	-573.88412	-87.26307	770.13802	-564.32583	-68.19761	736.17928	-533.20751	269.40863	937.34505	-638.24032	3.78495	931.42189	-621.72398	209.52459	988.91418	-808.10921	41.424	1005.58517	-800.72639	284.40231	630.43873	-696.10512	289.578	504.48078	-593.87455	253.51372	307.22216	-561.53503	285.99442	160.27386	-638.15125	226.0537	109.4282	-689.06586	286.20562	75.86342	-514.06593	15.81168	646.67015	-767.44392	42.29756	482.19944	-656.74431	71.11309	308.4824	-687.7256	74.50214	123.95626	-771.25305	121.52291	86.36779	-847.15744	110.64716	66.19822	-669.35013
172	5.71	226.12797	1458.75656	-446.96373	59.38625	1416.58966	-432.12891	225.86361	1536.99493	-546.1512	15.86744	1478.66776	-500.66227	197.83892	1301.06506	-619.76532	72.86731	1291.35223	-611.93382	193.04958	1377.08984	-721.49734	49.44921	1367.15591	-704.4339	126.19249	1221.13998	-813.31528	143.26218	1238.29384	-574.6225	149.14274	1136.15929	-537.9417	288.32199	1336.75034	-663.93967	355.92556	1118.13316	-703.79822	364.02367	1015.48447	-683.42445	355.32181	932.57286	-701.44936	298.80117	792.11128	-610.86967	370.75676	790.57762	-616.26972	352.96692	738.72635	-567.07458	-11.97251	1323.97919	-635.12032	-79.32546	1125.91507	-704.69162	-94.64293	994.28421	-654.84711	-93.5157	899.08798	-642.90199	-12.44842	781.381	-566.89739	-85.0454	768.01025	-557.95113	-66.17329	733.9357	-526.97651	270.27218	936.33957	-627.66853	4.56207	929.94492	-612.04803	210.53432	987.44011	-797.8067	42.58274	1004.23264	-790.66673	284.91693	629.15138	-684.29016	289.50535	503.91247	-581.07109	251.61751	309.23925	-534.14398	285.48538	156.4789	-595.38383	227.9771	101.52903	-645.08842	280.63028	80.38504	-465.16972	16.87445	646.23611	-759.30298	43.16809	480.68031	-650.31242	72.02189	307.41129	-683.63739	74.93149	123.75123	-770.38582	121.83627	86.89485	-846.65588	110.72199	66.20181	-669.35593
173	5.743	228.4424	1459.58069	-439.26125	62.20582	1415.8847	-422.54002	226.38496	1537.34467	-538.73001	17.43958	1477.2554	-490.98083	198.96948	1300.05539	-610.22774	73.7948	1290.38742	-602.40982	194.32049	1375.48676	-712.27577	50.74814	1365.70831	-695.42099	127.68686	1219.24164	-803.51585	144.15468	1237.45461	-564.80625	149.9556	1135.40855	-527.79205	289.53543	1335.35156	-654.61693	356.65863	1116.16104	-693.68866	364.39907	1013.64075	-672.74963	355.61905	930.94597	-690.83946	299.40598	790.54878	-600.20664	371.30257	788.68645	-606.07964	353.71517	736.71593	-556.97498	-11.12376	1322.80182	-626.0458	-77.40988	1124.52713	-696.41235	-92.02512	992.56203	-647.04666	-91.04485	897.63618	-636.13701	-9.98755	779.06372	-560.78846	-82.67949	765.6102	-552.22858	-63.87857	731.17432	-521.51829	271.25851	934.94316	-616.64967	5.37443	928.39439	-602.01305	211.98814	985.92468	-787.02789	44.09383	1002.87521	-780.18204	286.04336	627.39456	-672.93922	289.60918	502.69627	-568.82988	249.51626	311.69352	-509.56554	285.31942	154.0593	-557.35943	229.81672	96.14097	-605.06943	273.7742	86.96295	-421.14098	17.99912	645.73555	-751.026	44.11123	479.09161	-643.66791	72.72876	305.99131	-679.69124	75.19333	123.54568	-769.06227	122.05222	87.52923	-846.14784	110.76297	66.18642	-669.3486
174	5.777	231.08307	1460.14618	-430.80631	65.38174	1414.9794	-412.44629	227.37053	1537.44965	-530.65407	19.48544	1475.60516	-480.6686	200.54642	1298.81546	-600.07576	75.27719	1289.14856	-592.46544	196.13119	1373.76923	-702.54936	52.50408	1364.10233	-685.78636	129.65415	1217.2036	-793.21411	145.52195	1236.44951	-554.48383	151.20193	1134.45549	-517.11082	291.27836	1333.81256	-644.83871	357.76722	1114.18365	-683.88283	365.21584	1011.68144	-662.71553	356.01643	929.06952	-680.70259	300.13933	788.69987	-590.02411	371.94012	786.63445	-596.27541	354.71478	734.75204	-547.1077	-9.80406	1321.47003	-616.49277	-75.20809	1123.17101	-687.93869	-89.37391	990.85945	-639.17358	-88.29141	895.91896	-629.38911	-7.27661	776.56555	-555.25272	-80.0026	762.8878	-546.93344	-61.06476	728.05336	-516.62739	272.49693	933.1192	-605.32234	6.57724	926.78421	-591.7421	213.83821	984.25949	-775.77164	45.99703	1001.50536	-769.43413	287.8826	625.35862	-661.42258	289.73503	501.20014	-556.67374	247.766	313.94701	-487.82055	284.76183	153.52365	-523.77682	230.69326	92.7314	-569.37473	267.97127	93.40245	-383.2196	19.09429	645.31769	-742.67853	44.77685	477.39643	-637.2728	73.36378	304.50426	-675.84	75.44595	123.3689	-767.864	122.219	88.22704	-845.63309	110.78491	66.13582	-669.35638
175	5.81	234.05298	1460.32669	-421.48155	68.94017	1413.8681	-401.61011	228.92359	1537.16232	-521.59332	21.94195	1473.83911	-469.74098	202.75791	1297.2879	-589.28875	77.16573	1287.56516	-581.86455	198.4067	1371.89529	-691.84822	54.74582	1362.3526	-675.32028	132.10114	1215.20798	-782.33841	147.49249	1235.07301	-543.59123	152.945	1133.16368	-506.04492	293.6022	1332.03491	-634.32739	359.41349	1112.11609	-673.92899	366.75529	1009.52782	-652.89291	357.05444	926.97845	-671.08994	301.19633	786.91536	-579.30481	372.90745	784.41193	-586.43364	355.95467	732.73544	-537.05757	-7.97137	1319.88495	-606.15654	-72.68315	1121.97975	-678.99368	-87.03347	989.13429	-631.17035	-85.61552	894.0834	-622.10499	-4.51675	773.95706	-549.85363	-77.23083	760.06775	-541.60625	-58.06679	724.75403	-511.77227	274.02248	931.05705	-593.56697	8.03922	925.0692	-581.18462	216.09552	982.49969	-764.19807	48.27505	1000.12108	-758.51196	289.86902	623.18745	-649.68246	289.47668	499.63127	-544.64882	246.96159	315.61956	-468.90636	284.39245	153.44177	-495.93605	230.88102	90.67316	-539.15325	265.32812	98.24131	-351.93653	20.44558	644.57558	-734.09927	45.69398	475.72681	-630.09315	73.95008	302.94413	-671.5097	75.65813	123.49333	-766.68007	122.32401	89.23035	-845.07286	110.71424	66.05733	-669.31412
176	5.843	237.24306	1459.90448	-410.91038	72.48746	1412.68509	-389.90204	231.22568	1536.26984	-511.42841	24.85189	1472.02148	-458.10322	205.50356	1295.49973	-577.60841	79.69417	1285.8757	-570.40581	201.33762	1369.91882	-680.27832	57.66	1360.55206	-664.05457	135.06958	1213.32092	-770.83763	149.98198	1233.31131	-532.04826	155.12471	1131.3591	-494.5232	296.48052	1329.91516	-622.836	361.76411	1109.97078	-663.42865	369.0126	1007.21817	-642.56874	358.90339	924.79996	-660.54413	302.96961	785.02136	-568.30818	374.5689	782.00775	-576.10821	357.51522	730.25223	-526.60404	-5.43142	1318.16803	-595.00706	-70.09103	1120.93422	-669.3187	-84.90052	987.58972	-622.48383	-83.29839	892.31865	-614.21764	-2.00788	771.51512	-544.01741	-74.69937	757.41844	-535.65773	-55.01499	721.45866	-506.62834	275.85024	928.99574	-581.30985	9.83087	923.2402	-570.33142	218.85876	980.69916	-752.2596	51.12173	998.68149	-747.30721	291.15417	620.92915	-637.87678	289.76049	497.52247	-533.50475	246.91351	316.22614	-452.85461	284.21009	153.06136	-474.04934	230.5093	88.7892	-514.82086	264.9864	102.21905	-327.62608	22.25012	643.65387	-725.1429	46.59521	473.75343	-622.46246	74.45463	301.19184	-666.69167	75.82342	123.65329	-765.30922	122.57501	90.39916	-844.34677	110.54675	65.96735	-669.29703
177	5.877	240.73576	1458.66974	-398.9872	76.10976	1411.12244	-377.58587	234.37798	1534.67239	-499.73877	28.2593	1470.159	-445.89539	208.65774	1293.21243	-565.21187	82.81243	1284.10095	-558.29708	204.93071	1367.84058	-667.7401	61.18704	1358.80188	-652.03072	138.64407	1211.64429	-759.19746	152.89204	1231.15837	-519.89624	157.60485	1129.19044	-482.4514	299.90602	1327.51648	-610.09377	364.87865	1107.66144	-651.78581	372.08836	1004.71619	-631.22192	361.64307	922.36237	-649.16611	305.35351	782.6738	-557.00615	376.86451	779.32022	-565.18642	359.41521	727.37816	-515.71777	-2.26844	1316.427	-583.15598	-67.52345	1120.06775	-658.89442	-82.75339	986.24222	-613.09967	-81.31564	890.87318	-605.76866	0.54173	769.40483	-536.33511	-72.4848	754.98993	-529.19518	-52.49124	718.48434	-500.84057	278.13782	926.72264	-568.44494	11.82899	921.45676	-559.08024	222.24405	978.79539	-739.47281	54.37757	997.09702	-735.61531	292.46033	618.48045	-626.29765	290.30312	494.8785	-522.78591	247.31752	315.44113	-439.27704	284.12849	151.60899	-457.29782	229.89271	86.64874	-496.32931	266.04765	103.61664	-309.66703	24.79299	642.85088	-716.06499	47.47405	471.85127	-614.78439	75.08703	299.51572	-661.85417	76.05749	123.87185	-763.90465	122.99905	91.84031	-843.52409	110.43844	65.88241	-669.1922
